<?xml version="1.0" encoding="ISO-8859-1" standalone="no"?>
<!DOCTYPE svg PUBLIC "-//W3C//DTD SVG 1.1//EN"
    "http://www.w3.org/Graphics/SVG/1.1/DTD/svg11.dtd">
<svg xmlns="http://www.w3.org/2000/svg"
	xmlns:xlink="http://www.w3.org/1999/xlink"
	xml:space="preserve"
	width="320px" height="320px"
	viewBox="0 0 320 320"
	zoomAndPan="disable">
       
	<rect x="0" y="0" width="320" height="320" fill="rgba(255,255,255,1)" />


	<polyline points="20,0 50,0 50,50 110,50 110,0 130,0 130,130 110,130 110,70 70,70 70,130 20,130"
		fill="rgba(115, 194, 251, 1)" />
	<rect x="15.625%" y="12.5%" width="3.125%" height="3.125%" fill="rgba(115, 194, 251, 0.94)" />
	<rect x="100" y="12.5%" width="10" height="10" fill="rgba(115, 194, 251, 0.94)" />
	<rect x="70" y="70" width="10" height="10" fill="rgba(115, 194, 251, 0.94)" />
	<rect x="100" y="70" width="10" height="10" fill="rgba(115, 194, 251, 0.94)" />
	<rect x="50" y="30" width="10" height="10" fill="rgba(115, 194, 251, 0.81)" />
	<rect x="60" y="12.5%" width="10" height="10" fill="rgba(115, 194, 251, 0.81)" />
	<rect x="70" y="80" width="10" height="10" fill="rgba(115, 194, 251, 0.81)" />
	<rect x="90" y="12.5%" width="10" height="10" fill="rgba(115, 194, 251, 0.81)" />
	<rect x="100" y="30" width="10" height="10" fill="rgba(115, 194, 251, 0.81)" />
	<rect x="100" y="80" width="10" height="10" fill="rgba(115, 194, 251, 0.81)" />
	<rect x="80" y="70" width="20" height="10" fill="rgba(115, 194, 251, 0.81)" />
	<rect x="50" y="0" width="10" height="30" fill="rgba(115, 194, 251, 0.75)" />
	<rect x="100" y="0" width="10" height="30" fill="rgba(115, 194, 251, 0.75)" />
	<rect x="70" y="12.5%" width="20" height="10" fill="rgba(115, 194, 251, 0.75)" />
	<rect x="20" y="130" width="50" height="10" fill="rgba(115, 194, 251, 0.75)" />
	<rect x="70" y="90" width="10" height="12.5%" fill="rgba(115, 194, 251, 0.75)" />
	<rect x="100" y="90" width="10" height="12.5%" fill="rgba(115, 194, 251, 0.75)" />
	<rect x="110" y="130" width="20" height="10" fill="rgba(115, 194, 251, 0.75)" />
	<rect x="130" y="0" width="10" height="130" fill="rgba(115, 194, 251, 0.75)" />
	<rect x="70" y="130" width="10" height="10" fill="rgba(115, 194, 251, 0.56)" />
	<rect x="100" y="130" width="10" height="10" fill="rgba(115, 194, 251, 0.56)" />
	<rect x="130" y="130" width="10" height="10" fill="rgba(115, 194, 251, 0.56)" />
	<rect x="60" y="30" width="10" height="10" fill="rgba(115, 194, 251, 0.44)" />
	<rect x="90" y="30" width="10" height="10" fill="rgba(115, 194, 251, 0.44)" />
	<rect x="80" y="80" width="20" height="10" fill="rgba(115, 194, 251, 0.44)" />
	<rect x="60" y="0" width="10" height="30" fill="rgba(115, 194, 251, 0.25)" />
	<rect x="70" y="30" width="20" height="10" fill="rgba(115, 194, 251, 0.25)" />
	<rect x="90" y="0" width="10" height="30" fill="rgba(115, 194, 251, 0.25)" />
	<rect x="20" y="140" width="50" height="10" fill="rgba(115, 194, 251, 0.25)" />
	<rect x="80" y="90" width="20" height="12.5%" fill="rgba(115, 194, 251, 0.25)" />
	<rect x="110" y="140" width="20" height="10" fill="rgba(115, 194, 251, 0.25)" />
	<rect x="140" y="0" width="10" height="130" fill="rgba(115, 194, 251, 0.25)" />
	<rect x="70" y="140" width="10" height="10" fill="rgba(115, 194, 251, 0.19)" />
	<rect x="80" y="130" width="20" height="10" fill="rgba(115, 194, 251, 0.19)" />
	<rect x="100" y="140" width="10" height="10" fill="rgba(115, 194, 251, 0.19)" />
	<rect x="130" y="140" width="10" height="10" fill="rgba(115, 194, 251, 0.19)" />
	<rect x="140" y="130" width="10" height="10" fill="rgba(115, 194, 251, 0.19)" />
	<rect x="80" y="140" width="20" height="10" fill="rgba(115, 194, 251, 0.06)" />
	<rect x="140" y="140" width="10" height="10" fill="rgba(115, 194, 251, 0.06)" />


	<polyline points="190,0 300,0 300,30 250,30 250,70 300,70 300,90 250,90 250,130 190,130"
		fill="rgba(61,4,140,1)" />
	<rect x="250" y="30" width="10" height="10" fill="rgba(61,4,140,0.94)" />
	<rect x="250" y="60" width="10" height="10" fill="rgba(61,4,140,0.94)" />
	<rect x="250" y="90" width="10" height="10" fill="rgba(61,4,140,0.94)" />
	<rect x="250" y="120" width="10" height="10" fill="rgba(61,4,140,0.94)" />
	<rect x="50" y="220" width="10" height="10" fill="rgba(61,4,140,0.81)" />
	<rect x="50" y="250" width="10" height="10" fill="rgba(61,4,140,0.81)" />
	<rect x="50" y="280" width="10" height="10" fill="rgba(61,4,140,0.81)" />
	<rect x="80" y="220" width="10" height="10" fill="rgba(61,4,140,0.81)" />
	<rect x="80" y="250" width="10" height="10" fill="rgba(61,4,140,0.81)" />
	<rect x="80" y="280" width="10" height="10" fill="rgba(61,4,140,0.81)" />
	<rect x="110" y="280" width="10" height="10" fill="rgba(61,4,140,0.81)" />
	<rect x="120" y="270" width="10" height="10" fill="rgba(61,4,140,0.81)" />
	<rect x="60" y="210" width="20" height="10" fill="rgba(61,4,140,0.81)" />
	<rect x="60" y="260" width="20" height="20" fill="rgba(61,4,140,0.81)" />
	<rect x="180" y="0" width="10" height="130" fill="rgba(61,4,140,0.75)" />
	<rect x="270" y="30" width="30" height="10" fill="rgba(61,4,140,0.75)" />
	<rect x="270" y="60" width="30" height="12.5%" fill="rgba(61,4,140,0.75)" />
	<rect x="270" y="120" width="30" height="10" fill="rgba(61,4,140,0.75)" />
	<rect x="190" y="130" width="110" height="10" fill="rgba(61,4,140,0.75)" />
	<rect x="180" y="130" width="10" height="10" fill="rgba(61,4,140,0.56)" />
	<rect x="260" y="12.5%" width="10" height="20" fill="rgba(61,4,140,0.44)" />
	<rect x="260" y="100" width="10" height="20" fill="rgba(61,4,140,0.44)" />
	<rect x="170" y="0" width="10" height="130" fill="rgba(61,4,140,0.25)" />
	<rect x="190" y="140" width="110" height="10" fill="rgba(61,4,140,0.25)" />
	<rect x="270" y="12.5%" width="30" height="20" fill="rgba(61,4,140,0.25)" />
	<rect x="270" y="100" width="30" height="20" fill="rgba(61,4,140,0.25)" />
	<rect x="130" y="170" width="10" height="10" fill="rgba(61,4,140,0.19)" />
	<rect x="130" y="280" width="10" height="10" fill="rgba(61,4,140,0.19)" />
	<rect x="140" y="180" width="10" height="10" fill="rgba(61,4,140,0.19)" />
	<rect x="140" y="270" width="10" height="10" fill="rgba(61,4,140,0.19)" />
	<rect x="140" y="170" width="10" height="10" fill="rgba(61,4,140,0.06)" />
	<rect x="140" y="280" width="10" height="10" fill="rgba(61,4,140,0.06)" />


	<polyline points="20,190 130,190 130,270 110,270 110,320 90,320 90,210 50,210 50,320 20,320"
		fill="rgba(61,4,140,1)" />
	<rect x="50" y="210" width="10" height="10" fill="rgba(61,4,140,0.94)" />
	<rect x="80" y="210" width="10" height="10" fill="rgba(61,4,140,0.94)" />
	<rect x="50" y="260" width="10" height="20" fill="rgba(61,4,140,0.94)" />
	<rect x="80" y="260" width="10" height="20" fill="rgba(61,4,140,0.94)" />
	<rect x="110" y="270" width="10" height="10" fill="rgba(61,4,140,0.94)" />
	<rect x="250" y="12.5%" width="10" height="20" fill="rgba(61,4,140,0.81)" />
	<rect x="250" y="100" width="10" height="20" fill="rgba(61,4,140,0.81)" />
	<rect x="260" y="30" width="10" height="10" fill="rgba(61,4,140,0.81)" />
	<rect x="260" y="60" width="10" height="10" fill="rgba(61,4,140,0.81)" />
	<rect x="260" y="90" width="10" height="10" fill="rgba(61,4,140,0.81)" />
	<rect x="260" y="120" width="10" height="10" fill="rgba(61,4,140,0.81)" />
	<rect x="250" y="12.5%" width="10" height="20" fill="rgba(61,4,140,0.81)" />
	<rect x="20" y="180" width="110" height="10" fill="rgba(61,4,140,0.75)" />
	<rect x="50" y="230" width="10" height="20" fill="rgba(61,4,140,0.75)" />
	<rect x="80" y="230" width="10" height="20" fill="rgba(61,4,140,0.75)" />
	<rect x="50" y="290" width="10" height="30" fill="rgba(61,4,140,0.75)" />
	<rect x="80" y="290" width="12.5%" height="30" fill="rgba(61,4,140,0.75)" />
	<rect x="130" y="190" width="10" height="80" fill="rgba(61,4,140,0.75)" />
	<rect x="130" y="180" width="10" height="10" fill="rgba(61,4,140,0.56)" />
	<rect x="130" y="270" width="10" height="10" fill="rgba(61,4,140,0.56)" />
	<rect x="60" y="220" width="20" height="10" fill="rgba(61,4,140,0.44)" />
	<rect x="60" y="250" width="20" height="10" fill="rgba(61,4,140,0.44)" />
	<rect x="60" y="280" width="20" height="10" fill="rgba(61,4,140,0.44)" />
	<rect x="120" y="280" width="10" height="10" fill="rgba(61,4,140,0.44)" />
	<rect x="20" y="170" width="110" height="10" fill="rgba(61,4,140,0.25)" />
	<rect x="60" y="230" width="20" height="20" fill="rgba(61,4,140,0.25)" />
	<rect x="60" y="290" width="20" height="30" fill="rgba(61,4,140,0.25)" />
	<rect x="140" y="190" width="10" height="80" fill="rgba(61,4,140,0.25)" />
	<rect x="120" y="290" width="10" height="30" fill="rgba(61,4,140,0.25)" />
	<rect x="170" y="130" width="10" height="10" fill="rgba(61,4,140,0.19)" />
	<rect x="180" y="140" width="10" height="10" fill="rgba(61,4,140,0.19)" />
	<rect x="170" y="140" width="10" height="10" fill="rgba(61,4,140,0.06)" />


	<polyline points="190,190 300,190 300,210 250,210 250,250 300,250 300,270 250,270 250,310 300,310 300,320 190,320"
		fill="rgba(115, 194, 251, 1)" />
	<rect x="250" y="210" width="10" height="10" fill="rgba(115, 194, 251, 0.94)" />
	<rect x="250" y="240" width="10" height="10" fill="rgba(115, 194, 251, 0.94)" />
	<rect x="250" y="270" width="10" height="10" fill="rgba(115, 194, 251, 0.94)" />
	<rect x="250" y="300" width="10" height="10" fill="rgba(115, 194, 251, 0.94)" />
	<rect x="250" y="220" width="10" height="20" fill="rgba(115, 194, 251, 0.81)" />
	<rect x="250" y="280" width="10" height="20" fill="rgba(115, 194, 251, 0.81)" />
	<rect x="260" y="210" width="10" height="10" fill="rgba(115, 194, 251, 0.81)" />
	<rect x="260" y="240" width="10" height="10" fill="rgba(115, 194, 251, 0.81)" />
	<rect x="260" y="270" width="10" height="10" fill="rgba(115, 194, 251, 0.81)" />
	<rect x="260" y="300" width="10" height="10" fill="rgba(115, 194, 251, 0.81)" />
	<rect x="180" y="190" width="10" height="130" fill="rgba(115, 194, 251, 0.75)" />
	<rect x="190" y="180" width="110" height="10" fill="rgba(115, 194, 251, 0.75)" />
	<rect x="270" y="210" width="30" height="10" fill="rgba(115, 194, 251, 0.75)" />
	<rect x="270" y="240" width="30" height="10" fill="rgba(115, 194, 251, 0.75)" />
	<rect x="270" y="270" width="30" height="10" fill="rgba(115, 194, 251, 0.75)" />
	<rect x="270" y="300" width="30" height="10" fill="rgba(115, 194, 251, 0.75)" />
	<rect x="180" y="180" width="10" height="10" fill="rgba(115, 194, 251, 0.56)" />
	<rect x="260" y="220" width="10" height="20" fill="rgba(115, 194, 251, 0.44)" />
	<rect x="260" y="280" width="10" height="20" fill="rgba(115, 194, 251, 0.44)" />
	<rect x="170" y="190" width="10" height="130" fill="rgba(115, 194, 251, 0.25)" />
	<rect x="190" y="170" width="110" height="10" fill="rgba(115, 194, 251, 0.25)" />
	<rect x="270" y="220" width="30" height="20" fill="rgba(115, 194, 251, 0.25)" />
	<rect x="270" y="280" width="30" height="20" fill="rgba(115, 194, 251, 0.25)" />
	<rect x="170" y="180" width="10" height="10" fill="rgba(115, 194, 251, 0.19)" />
	<rect x="180" y="170" width="10" height="10" fill="rgba(115, 194, 251, 0.19)" />
	<rect x="170" y="170" width="10" height="10" fill="rgba(115, 194, 251, 0.06)" />
</svg>


